<svg xmlns="http://www.w3.org/2000/svg" width="25" height="25" viewBox="0 0 25 25">
  <g id="Group_116" data-name="Group 116" transform="translate(-176 -144)">
    <rect id="Rectangle_58" data-name="Rectangle 58" width="25" height="25" rx="5" transform="translate(176 144)" fill="#e5b556"/>
    <path id="Path_299" data-name="Path 299" d="M35.081,6.423c.024-.086.049-.172.073-.26h0l.319-1.109-4.586.734-.04.262a.9.9,0,0,0-.027.188,5.072,5.072,0,0,1,.568.037.649.649,0,0,1,.589.811,2.882,2.882,0,0,1-.051.332q-.465,1.652-.934,3.306c-.308,1.086-.648,2.163-.915,3.258a1.506,1.506,0,0,0,1.774,1.965,2.964,2.964,0,0,0,1.485-.623,7.558,7.558,0,0,0,1.895-2.331l-.369-.223c-.265.356-.5.7-.766,1.015a3.542,3.542,0,0,1-.619.581.4.4,0,0,1-.375,0,.493.493,0,0,1-.16-.37,2.377,2.377,0,0,1,.123-.579ZM34.741,0a1.63,1.63,0,0,0-1.649,1.655A1.654,1.654,0,1,0,34.741,0Z" transform="translate(154.986 149.001)" fill="#fcf7ed"/>
  </g>
</svg>
