<svg xmlns="http://www.w3.org/2000/svg" width="20" height="20" viewBox="0 0 20 20">
  <path id="Path_17" data-name="Path 17" d="M27.88,27.175V19.363a1.005,1.005,0,0,1,2.01,0v7.812a1.005,1.005,0,0,1-2.01,0ZM35.2,20.923a1.027,1.027,0,0,0-1.417.138.977.977,0,0,0,.141,1.393,7.774,7.774,0,0,1,2.945,6.084,7.991,7.991,0,0,1-15.98,0,7.734,7.734,0,0,1,2.482-5.689.963.963,0,0,0,.03-1.393,1,1,0,0,0-1.417-.03,9.682,9.682,0,0,0-3.105,7.121,10,10,0,0,0,20,0,9.729,9.729,0,0,0-3.688-7.615Z" transform="translate(-18.875 -18.375)" fill="#484848"/>
</svg>
