<svg xmlns="http://www.w3.org/2000/svg" xmlns:xlink="http://www.w3.org/1999/xlink" width="24" height="24" viewBox="0 0 24 24">
  <defs>
    <clipPath id="clip-path">
      <rect id="Rectangle_17" data-name="Rectangle 17" width="24" height="24" transform="translate(440 166)" fill="#484848"/>
    </clipPath>
  </defs>
  <g id="Mask_Group_5" data-name="Mask Group 5" transform="translate(-440 -166)" clip-path="url(#clip-path)">
    <path id="Path_25" data-name="Path 25" d="M28.023,26.2h9.923a.717.717,0,1,1,0,1.434H28.023a.716.716,0,0,1,0-1.432Zm0,3.924h9.923a.717.717,0,1,1,0,1.434H28.023a.717.717,0,0,1,0-1.434h0Zm0,3.925h3.995a.716.716,0,1,1,0,1.432H28.023a.716.716,0,0,1,0-1.432Zm9.082-16.618H23.78a2.751,2.751,0,0,0-2.737,2.752V35.859a2.728,2.728,0,0,0,.3,1.251.716.716,0,0,0,.639.393.681.681,0,0,0,.705-.576V23.007a3.652,3.652,0,0,1,3.59-3.652H38.562a.676.676,0,0,0,.579-.7.713.713,0,0,0-.249-.543,2.745,2.745,0,0,0-1.786-.674Zm2.542,2.819H26.322a2.753,2.753,0,0,0-2.737,2.752V38.677a2.754,2.754,0,0,0,2.721,2.754h7.618c0-4.576,0-4.6,0-4.6a3.949,3.949,0,0,1,3.924-3.949h4.537V23.007a2.757,2.757,0,0,0-2.737-2.755h0Zm2.737,13.823h-4.53a2.753,2.753,0,0,0-2.737,2.754v4.6h1.1a.716.716,0,0,0,.507-.21l5.449-5.449a.749.749,0,0,0,.207-.541Z" transform="translate(420.286 148.567)" fill="#484848"/>
  </g>
</svg>
